<svg width="560" height="340" viewBox="0 0 560 340" xmlns="http://www.w3.org/2000/svg">
  <style>
    .bg{fill:#0f1f2f;stroke:#4ec0f0;stroke-width:2;rx:14;ry:14;}
    .title{fill:#e6f4ff;font-family:'Helvetica Neue',Arial,sans-serif;font-size:18px;font-weight:700;}
    .bar{fill:#8de0a3;}
    .label{fill:#b8d4f5;font-family:'Helvetica Neue',Arial,sans-serif;font-size:13px;}
    .value{fill:#e6f4ff;font-family:'Helvetica Neue',Arial,sans-serif;font-size:12px;font-weight:700;}
  </style>
  <rect class="bg" x="20" y="20" width="520" height="300" />
  <text class="title" x="280" y="55" text-anchor="middle">Edge Buckets (counts)</text>
  <!-- scale heights: max 170 for 1372 -->
  <!-- factor ~0.124 -->
  <g transform="translate(90,80)">
    <rect class="bar" x="0" y="0" width="50" height="170" />
    <text class="label" x="25" y="190" text-anchor="middle">C</text>
    <text class="value" x="25" y="210" text-anchor="middle">1372</text>
  </g>
  <g transform="translate(160,100)">
    <rect class="bar" x="0" y="0" width="50" height="146" />
    <text class="label" x="25" y="166" text-anchor="middle">C+</text>
    <text class="value" x="25" y="186" text-anchor="middle">1231</text>
  </g>
  <g transform="translate(230,120)">
    <rect class="bar" x="0" y="0" width="50" height="116" />
    <text class="label" x="25" y="136" text-anchor="middle">B</text>
    <text class="value" x="25" y="156" text-anchor="middle">975</text>
  </g>
  <g transform="translate(300,145)">
    <rect class="bar" x="0" y="0" width="50" height="90" />
    <text class="label" x="25" y="110" text-anchor="middle">B+</text>
    <text class="value" x="25" y="130" text-anchor="middle">687</text>
  </g>
  <g transform="translate(370,170)">
    <rect class="bar" x="0" y="0" width="50" height="64" />
    <text class="label" x="25" y="84" text-anchor="middle">A</text>
    <text class="value" x="25" y="104" text-anchor="middle">404</text>
  </g>
  <g transform="translate(440,180)">
    <rect class="bar" x="0" y="0" width="50" height="52" />
    <text class="label" x="25" y="72" text-anchor="middle">A+</text>
    <text class="value" x="25" y="92" text-anchor="middle">333</text>
  </g>
</svg>
