<svg width="520" height="320" viewBox="0 0 520 320" xmlns="http://www.w3.org/2000/svg">
  <style>.bg{fill:#0f1f2f;stroke:#4ec0f0;stroke-width:2;rx:14;ry:14;}.title{fill:#e6f4ff;font-family:'Helvetica Neue',Arial,sans-serif;font-size:18px;font-weight:700;}.bar{fill:#8de0a3;}.label{fill:#b8d4f5;font-family:'Helvetica Neue',Arial,sans-serif;font-size:13px;}.value{fill:#e6f4ff;font-family:'Helvetica Neue',Arial,sans-serif;font-size:12px;font-weight:700;}</style>
  <rect class="bg" x="20" y="20" width="480" height="280" />
  <text class="title" x="260" y="55" text-anchor="middle">Edge Buckets (counts)</text>
  <g transform="translate(90,90)">
    <rect class="bar" x="0" y="120" width="40" height="60" />
    <text class="label" x="20" y="190" text-anchor="middle">C</text>
    <text class="value" x="20" y="210" text-anchor="middle">1372</text>
  </g>
  <g transform="translate(150,70)">
    <rect class="bar" x="0" y="140" width="40" height="80" />
    <text class="label" x="20" y="190" text-anchor="middle">C+</text>
    <text class="value" x="20" y="210" text-anchor="middle">1231</text>
  </g>
  <g transform="translate(210,40)">
    <rect class="bar" x="0" y="170" width="40" height="110" />
    <text class="label" x="20" y="190" text-anchor="middle">B</text>
    <text class="value" x="20" y="210" text-anchor="middle">975</text>
  </g>
  <g transform="translate(270,10)">
    <rect class="bar" x="0" y="200" width="40" height="140" />
    <text class="label" x="20" y="190" text-anchor="middle">B+</text>
    <text class="value" x="20" y="210" text-anchor="middle">687</text>
  </g>
  <g transform="translate(330,-10)">
    <rect class="bar" x="0" y="220" width="40" height="160" />
    <text class="label" x="20" y="190" text-anchor="middle">A</text>
    <text class="value" x="20" y="210" text-anchor="middle">404</text>
  </g>
  <g transform="translate(390,-20)">
    <rect class="bar" x="0" y="230" width="40" height="170" />
    <text class="label" x="20" y="190" text-anchor="middle">A+</text>
    <text class="value" x="20" y="210" text-anchor="middle">333</text>
  </g>
</svg>
