<svg width="520" height="320" viewBox="0 0 520 320" xmlns="http://www.w3.org/2000/svg">
  <style>.bg{fill:#0f1f2f;stroke:#4ec0f0;stroke-width:2;rx:14;ry:14;}.title{fill:#e6f4ff;font-family:'Helvetica Neue',Arial,sans-serif;font-size:18px;font-weight:700;}.barbg{fill:#142a4a;}.bar{fill:#8de0a3;}.label{fill:#b8d4f5;font-family:'Helvetica Neue',Arial,sans-serif;font-size:13px;}.value{fill:#e6f4ff;font-family:'Helvetica Neue',Arial,sans-serif;font-size:14px;font-weight:700;}</style>
  <rect class="bg" x="20" y="20" width="480" height="280" />
  <text class="title" x="260" y="55" text-anchor="middle">Coverage by Edge Band</text>
  <g transform="translate(80,90)">
    <rect class="barbg" x="0" y="0" width="360" height="20" rx="4" />
    <rect class="bar" x="0" y="0" width="96" height="20" rx="4" />
    <text class="label" x="0" y="-6">A+ (≥25 pts)</text>
    <text class="value" x="360" y="15" text-anchor="end">6.7% (n=333)</text>
  </g>
  <g transform="translate(80,130)">
    <rect class="barbg" x="0" y="0" width="360" height="20" rx="4" />
    <rect class="bar" x="0" y="0" width="115" height="20" rx="4" />
    <text class="label" x="0" y="-6">A (20–25 pts)</text>
    <text class="value" x="360" y="15" text-anchor="end">8.1% (n=404)</text>
  </g>
  <g transform="translate(80,170)">
    <rect class="barbg" x="0" y="0" width="360" height="20" rx="4" />
    <rect class="bar" x="0" y="0" width="165" height="20" rx="4" />
    <text class="label" x="0" y="-6">B+ (15–20 pts)</text>
    <text class="value" x="360" y="15" text-anchor="end">13.7% (n=687)</text>
  </g>
  <g transform="translate(80,210)">
    <rect class="barbg" x="0" y="0" width="360" height="20" rx="4" />
    <rect class="bar" x="0" y="0" width="195" height="20" rx="4" />
    <text class="label" x="0" y="-6">B (10–15 pts)</text>
    <text class="value" x="360" y="15" text-anchor="end">19.5% (n=975)</text>
  </g>
</svg>
