<svg width="720" height="320" viewBox="0 0 720 320" xmlns="http://www.w3.org/2000/svg">
  <style>
    .bg { fill:#0f1f2f; stroke:#4ec0f0; stroke-width:2; rx:14; ry:14; }
    .title { fill:#e6f4ff; font-family:'Helvetica Neue', Arial, sans-serif; font-size:16px; font-weight:700; }
    .label { fill:#b8d4f5; font-family:'Helvetica Neue', Arial, sans-serif; font-size:13px; }
    .barbg { fill:#142a4a; }
    .bar { fill:#8de0a3; }
  </style>
  <rect class="bg" x="20" y="20" width="680" height="280" />
  <text class="title" x="360" y="55" text-anchor="middle">Top Signals (v6)</text>
  <g transform="translate(60,80)">
    <rect class="barbg" x="0" y="0" width="540" height="18" rx="4" />
    <rect class="bar" x="0" y="0" width="360" height="18" rx="4" />
    <text class="label" x="0" y="-4">season_goal_diff_avg_diff</text>
  </g>
  <g transform="translate(60,120)">
    <rect class="barbg" x="0" y="0" width="540" height="18" rx="4" />
    <rect class="bar" x="0" y="0" width="320" height="18" rx="4" />
    <text class="label" x="0" y="-4">rolling_goal_diff_10_diff</text>
  </g>
  <g transform="translate(60,160)">
    <rect class="barbg" x="0" y="0" width="540" height="18" rx="4" />
    <rect class="bar" x="0" y="0" width="300" height="18" rx="4" />
    <text class="label" x="0" y="-4">rolling_gsax_5_diff</text>
  </g>
  <g transform="translate(60,200)">
    <rect class="barbg" x="0" y="0" width="540" height="18" rx="4" />
    <rect class="bar" x="0" y="0" width="260" height="18" rx="4" />
    <text class="label" x="0" y="-4">rest / back-to-back</text>
  </g>
  <g transform="translate(60,240)">
    <rect class="barbg" x="0" y="0" width="540" height="18" rx="4" />
    <rect class="bar" x="0" y="0" width="240" height="18" rx="4" />
    <text class="label" x="0" y="-4">rolling_xg_diff_5_diff</text>
  </g>
</svg>
