<svg width="720" height="320" viewBox="0 0 720 320" xmlns="http://www.w3.org/2000/svg">
  <style>.bg{fill:#0f1f2f;stroke:#4ec0f0;stroke-width:2;rx:14;ry:14;}.title{fill:#e6f4ff;font-family:'Helvetica Neue',Arial,sans-serif;font-size:16px;font-weight:700;}.label{fill:#b8d4f5;font-family:'Helvetica Neue',Arial,sans-serif;font-size:13px;}.barbg{fill:#142a4a;}.bar{fill:#8de0a3;}</style>
  <rect class="bg" x="20" y="20" width="680" height="280" />
  <text class="title" x="360" y="55" text-anchor="middle">Top Signals (sample v7)</text>
  <g transform="translate(60,90)">
    <rect class="barbg" x="0" y="0" width="540" height="18" rx="4" />
    <rect class="bar" x="0" y="0" width="360" height="18" rx="4" />
    <text class="label" x="0" y="-6">rolling_goal_diff_10_diff</text>
  </g>
  <g transform="translate(60,130)">
    <rect class="barbg" x="0" y="0" width="540" height="18" rx="4" />
    <rect class="bar" x="0" y="0" width="330" height="18" rx="4" />
    <text class="label" x="0" y="-6">rolling_gsax_5_diff</text>
  </g>
  <g transform="translate(60,170)">
    <rect class="barbg" x="0" y="0" width="540" height="18" rx="4" />
    <rect class="bar" x="0" y="0" width="300" height="18" rx="4" />
    <text class="label" x="0" y="-6">rest_b2b indicators</text>
  </g>
  <g transform="translate(60,210)">
    <rect class="barbg" x="0" y="0" width="540" height="18" rx="4" />
    <rect class="bar" x="0" y="0" width="280" height="18" rx="4" />
    <text class="label" x="0" y="-6">PP/PK differential</text>
  </g>
</svg>
