<svg width="720" height="240" viewBox="0 0 720 240" xmlns="http://www.w3.org/2000/svg">
  <style>
    .hdr { fill:#0b1e3f; }
    .row { fill:#0f1f36; }
    .text { fill:#e8f1ff; font-family:'Inter','Segoe UI',sans-serif; font-size:14px; }
    .label { fill:#cfe5ff; font-family:'Inter','Segoe UI',sans-serif; font-size:12px; }
    .barbg { fill:#142a4a; }
    .bar { fill:#4ea1ff; }
    .trend { fill:#8ee0a1; font-size:14px; }
  </style>
  <rect class="hdr" x="20" y="20" width="680" height="40" rx="6" ry="6" />
  <text class="text" x="50" y="45">Team</text>
  <text class="text" x="150" y="45">Playoff</text>
  <text class="text" x="280" y="45">Division</text>
  <text class="text" x="400" y="45">Conf</text>
  <text class="text" x="500" y="45">Cup</text>
  <text class="text" x="600" y="45">Trend</text>

  <rect class="row" x="20" y="70" width="680" height="40" rx="6" ry="6" />
  <text class="text" x="50" y="95">NYR</text>
  <rect class="barbg" x="120" y="80" width="110" height="12" rx="3" />
  <rect class="bar" x="120" y="80" width="97" height="12" rx="3" />
  <text class="label" x="235" y="90">88%</text>
  <rect class="barbg" x="250" y="80" width="80" height="12" rx="3" />
  <rect class="bar" x="250" y="80" width="27" height="12" rx="3" />
  <text class="label" x="335" y="90">34%</text>
  <text class="label" x="400" y="90">18%</text>
  <text class="label" x="500" y="90">7%</text>
  <text class="trend" x="600" y="90">↑</text>

  <rect class="row" x="20" y="120" width="680" height="40" rx="6" ry="6" />
  <text class="text" x="50" y="145">DAL</text>
  <rect class="barbg" x="120" y="130" width="110" height="12" rx="3" />
  <rect class="bar" x="120" y="130" width="92" height="12" rx="3" />
  <text class="label" x="235" y="140">84%</text>
  <rect class="barbg" x="250" y="130" width="80" height="12" rx="3" />
  <rect class="bar" x="250" y="130" width="34" height="12" rx="3" />
  <text class="label" x="335" y="140">42%</text>
  <text class="label" x="400" y="140">15%</text>
  <text class="label" x="500" y="140">6%</text>
  <text class="trend" x="600" y="140">→</text>

  <rect class="row" x="20" y="170" width="680" height="40" rx="6" ry="6" />
  <text class="text" x="50" y="195">TOR</text>
  <rect class="barbg" x="120" y="180" width="110" height="12" rx="3" />
  <rect class="bar" x="120" y="180" width="89" height="12" rx="3" />
  <text class="label" x="235" y="190">81%</text>
  <rect class="barbg" x="250" y="180" width="80" height="12" rx="3" />
  <rect class="bar" x="250" y="180" width="22" height="12" rx="3" />
  <text class="label" x="335" y="190">28%</text>
  <text class="label" x="400" y="190">14%</text>
  <text class="label" x="500" y="190">5%</text>
  <text class="trend" x="600" y="190">↓</text>

  <text class="label" x="20" y="225">Last updated: HH:MM ET · Sims: 10k</text>
</svg>
